Samaano_Wide-Thin.ufo
<glyph name="exclam" format="2">
  <advance width="2048"/>
  <unicode hex="0021"/>
  <outline>
    <contour>
      <point x="990" y="276" type="line"/>
      <point x="1057" y="276" type="line"/>
      <point x="1057" y="374" type="line"/>
      <point x="990" y="374" type="line"/>
    </contour>
    <contour>
      <point x="988" y="611" type="line"/>
      <point x="1060" y="611" type="line"/>
      <point x="1060" y="1629" type="line"/>
      <point x="988" y="1629" type="line"/>
    </contour>
  </outline>
</glyph>
<glyph name="quotedbl" format="2">
  <advance width="2048"/>
  <unicode hex="0022"/>
  <outline>
    <contour>
      <point x="792.5" y="1326" type="line"/>
      <point x="857.5" y="1326" type="line"/>
      <point x="857.5" y="1574" type="line"/>
      <point x="792.5" y="1574" type="line"/>
    </contour>
    <contour>
      <point x="1195.5" y="1326" type="line"/>
      <point x="1255.5" y="1326" type="line"/>
      <point x="1255.5" y="1574" type="line"/>
      <point x="1195.5" y="1574" type="line"/>
    </contour>
  </outline>
</glyph>
<glyph name="numbersign" format="2">
  <advance width="2048"/>
  <unicode hex="0023"/>
  <outline>
    <contour>
      <point x="741" y="1184" type="line"/>
      <point x="741" y="99" type="line"/>
      <point x="800" y="99" type="line"/>
      <point x="800" y="1184" type="line"/>
    </contour>
    <contour>
      <point x="1236" y="1192" type="line"/>
      <point x="1236" y="95" type="line"/>
      <point x="1307" y="95" type="line"/>
      <point x="1307" y="1192" type="line"/>
    </contour>
    <contour>
      <point x="617" y="995" type="line"/>
      <point x="617" y="937" type="line"/>
      <point x="1418" y="937" type="line"/>
      <point x="1418" y="995" type="line"/>
    </contour>
    <contour>
      <point x="621" y="493" type="line"/>
      <point x="621" y="417" type="line"/>
      <point x="1431" y="417" type="line"/>
      <point x="1431" y="493" type="line"/>
    </contour>
  </outline>
</glyph>
<glyph name="dollar" format="2">
  <advance width="2048"/>
  <unicode hex="0024"/>
  <outline>
    <contour>
      <point x="638" y="1539" type="line"/>
      <point x="638" y="1457" type="line"/>
      <point x="1236" y="1457" type="line"/>
      <point x="1236" y="1539" type="line"/>
    </contour>
    <contour>
      <point x="638" y="1542" type="line"/>
      <point x="638" y="1028" type="line"/>
      <point x="722" y="1028" type="line"/>
      <point x="722" y="1542" type="line"/>
    </contour>
    <contour>
      <point x="666" y="69" type="line"/>
      <point x="666" y="0" type="line"/>
      <point x="1374" y="0" type="line"/>
      <point x="1374" y="69" type="line"/>
    </contour>
    <contour>
      <point x="1330" y="1" type="line"/>
      <point x="1410" y="1" type="line"/>
      <point x="1410" y="355" type="line"/>
      <point x="1330" y="355" type="line"/>
    </contour>
    <contour>
      <point x="638" y="1028" type="line"/>
      <point x="1329" y="355" type="line"/>
      <point x="1410" y="355" type="line"/>
      <point x="722" y="1028" type="line"/>
    </contour>
    <contour>
      <point x="933" y="1636" type="line"/>
      <point x="933" y="-215" type="line"/>
      <point x="1003" y="-215" type="line"/>
      <point x="1003" y="1636" type="line"/>
    </contour>
  </outline>
</glyph>
<glyph name="percent" format="2">
  <advance width="2048"/>
  <unicode hex="0025"/>
  <outline>
    <contour>
      <point x="634" y="444" type="line"/>
      <point x="663" y="417" type="line"/>
      <point x="1410" y="775" type="line"/>
      <point x="1391" y="801" type="line"/>
    </contour>
    <contour>
      <point x="740" y="1148" type="line"/>
      <point x="740" y="803" type="line"/>
      <point x="771" y="803" type="line"/>
      <point x="771" y="1148" type="line"/>
    </contour>
    <contour>
      <point x="740" y="1152" type="line"/>
      <point x="740" y="1126" type="line"/>
      <point x="1087" y="1126" type="line"/>
      <point x="1087" y="1152" type="line"/>
    </contour>
    <contour>
      <point x="740" y="826" type="line"/>
      <point x="740" y="789" type="line"/>
      <point x="1084" y="789" type="line"/>
      <point x="1084" y="826" type="line"/>
    </contour>
    <contour>
      <point x="1051" y="1152" type="line"/>
      <point x="1051" y="791" type="line"/>
      <point x="1087" y="791" type="line"/>
      <point x="1087" y="1152" type="line"/>
    </contour>
    <contour>
      <point x="1067" y="436" type="line"/>
      <point x="1067" y="94" type="line"/>
      <point x="1110" y="94" type="line"/>
      <point x="1110" y="436" type="line"/>
    </contour>
    <contour>
      <point x="1067" y="440" type="line"/>
      <point x="1067" y="397" type="line"/>
      <point x="1414" y="397" type="line"/>
      <point x="1414" y="440" type="line"/>
    </contour>
    <contour>
      <point x="1067" y="109" type="line"/>
      <point x="1067" y="77" type="line"/>
      <point x="1411" y="77" type="line"/>
      <point x="1411" y="109" type="line"/>
    </contour>
    <contour>
      <point x="1380" y="440" type="line"/>
      <point x="1380" y="79" type="line"/>
      <point x="1414" y="79" type="line"/>
      <point x="1414" y="440" type="line"/>
    </contour>
  </outline>
</glyph>
<glyph name="parenleft" format="2">
  <advance width="2048"/>
  <unicode hex="0028"/>
  <outline>
    <contour>
      <point x="828.5" y="1026" type="line"/>
      <point x="828.5" y="179" type="line"/>
      <point x="956.5" y="179" type="line"/>
      <point x="956.5" y="1026" type="line"/>
    </contour>
    <contour>
      <point x="1192.5" y="1636" type="line"/>
      <point x="828.5" y="1026" type="line"/>
      <point x="956.5" y="1026" type="line"/>
      <point x="1219.5" y="1633" type="line"/>
    </contour>
    <contour>
      <point x="828.5" y="179" type="line"/>
      <point x="1165.5" y="-307" type="line"/>
      <point x="1194.5" y="-309" type="line"/>
      <point x="956.5" y="179" type="line"/>
    </contour>
  </outline>
</glyph>
<glyph name="comma" format="2">
  <advance width="2048"/>
  <unicode hex="002C"/>
  <outline>
    <contour>
      <point x="955.5" y="165" type="line"/>
      <point x="955.5" y="8" type="line"/>
      <point x="1092.5" y="8" type="line"/>
      <point x="1092.5" y="165" type="line"/>
    </contour>
    <contour>
      <point x="1039.5" y="135" type="line"/>
      <point x="998.5" y="-99" type="line"/>
      <point x="1047.5" y="-148" type="line"/>
      <point x="1090.5" y="26" type="line"/>
    </contour>
  </outline>
</glyph>
<glyph name="four" format="2">
  <advance width="2048"/>
  <unicode hex="0034"/>
  <outline>
    <contour>
      <point x="522" y="935" type="line"/>
      <point x="522" y="1640" type="line"/>
      <point x="624" y="1640" type="line"/>
      <point x="624" y="935" type="line"/>
    </contour>
    <contour>
      <point x="664" y="810" type="line"/>
      <point x="664" y="935" type="line"/>
      <point x="1384" y="935" type="line"/>
      <point x="1384" y="810" type="line"/>
    </contour>
    <contour>
      <point x="1418" y="0" type="line"/>
      <point x="1418" y="845" type="line"/>
      <point x="1526" y="845" type="line"/>
      <point x="1526" y="0" type="line"/>
    </contour>
    <contour>
      <point x="1434" y="935" type="line"/>
      <point x="1434" y="1640" type="line"/>
      <point x="1526" y="1640" type="line"/>
      <point x="1526" y="935" type="line"/>
    </contour>
  </outline>
</glyph>
<glyph name="seven" format="2">
  <advance width="2048"/>
  <unicode hex="0037"/>
  <outline>
    <contour>
      <point x="575" y="1520" type="line"/>
      <point x="575" y="1630" type="line"/>
      <point x="1315" y="1640" type="line"/>
      <point x="1315" y="1520" type="line"/>
    </contour>
    <contour>
      <point x="1362" y="984" type="line"/>
      <point x="1351" y="1635" type="line"/>
      <point x="1450" y="1635" type="line"/>
      <point x="1458" y="980" type="line"/>
    </contour>
    <contour>
      <point x="1377" y="30" type="line"/>
      <point x="1362" y="933" type="line"/>
      <point x="1451" y="943" type="line"/>
      <point x="1473" y="30" type="line"/>
    </contour>
  </outline>
</glyph>
<glyph name="semicolon" format="2">
  <advance width="2048"/>
  <unicode hex="003B"/>
  <outline>
    <contour>
      <point x="955.5" y="164" type="line"/>
      <point x="955.5" y="7" type="line"/>
      <point x="1092.5" y="7" type="line"/>
      <point x="1092.5" y="164" type="line"/>
    </contour>
    <contour>
      <point x="1039.5" y="135" type="line"/>
      <point x="998.5" y="-99" type="line"/>
      <point x="1047.5" y="-148" type="line"/>
      <point x="1090.5" y="26" type="line"/>
    </contour>
    <contour>
      <point x="955.5" y="503" type="line"/>
      <point x="955.5" y="346" type="line"/>
      <point x="1092.5" y="346" type="line"/>
      <point x="1092.5" y="503" type="line"/>
    </contour>
  </outline>
</glyph>
<glyph name="question" format="2">
  <advance width="2048"/>
  <unicode hex="003F"/>
  <outline>
    <contour>
      <point x="880.5" y="134" type="line"/>
      <point x="880.5" y="0" type="line"/>
      <point x="992.5" y="0" type="line"/>
      <point x="991.5" y="134" type="line"/>
    </contour>
    <contour>
      <point x="703.5" y="1519" type="line"/>
      <point x="703.5" y="1426" type="line"/>
      <point x="1340.5" y="1426" type="line"/>
      <point x="1340.5" y="1519" type="line"/>
    </contour>
    <contour>
      <point x="1258.5" y="1514" type="line"/>
      <point x="1258.5" y="966" type="line"/>
      <point x="1344.5" y="966" type="line"/>
      <point x="1344.5" y="1514" type="line"/>
    </contour>
    <contour>
      <point x="880.5" y="1015" type="line"/>
      <point x="880.5" y="948" type="line"/>
      <point x="1344.5" y="948" type="line"/>
      <point x="1344.5" y="1015" type="line"/>
    </contour>
    <contour>
      <point x="880.5" y="1011" type="line"/>
      <point x="880.5" y="392" type="line"/>
      <point x="976.5" y="392" type="line"/>
      <point x="976.5" y="1011" type="line"/>
    </contour>
  </outline>
</glyph>
<glyph name="at" format="2">
  <advance width="2048"/>
  <unicode hex="0040"/>
  <outline>
    <contour>
      <point x="593.5" y="1024" type="line"/>
      <point x="594.5" y="956" type="line"/>
      <point x="1487.5" y="956" type="line"/>
      <point x="1491.5" y="1024" type="line"/>
    </contour>
    <contour>
      <point x="1252.5" y="598" type="line"/>
      <point x="1251.5" y="-1" type="line"/>
      <point x="1321.5" y="0" type="line"/>
      <point x="1319.5" y="598" type="line"/>
    </contour>
    <contour>
      <point x="831.5" y="602" type="line"/>
      <point x="833.5" y="551" type="line"/>
      <point x="1256.5" y="551" type="line"/>
      <point x="1256.5" y="601" type="line"/>
    </contour>
    <contour>
      <point x="828.5" y="589" type="line"/>
      <point x="828.5" y="12" type="line"/>
      <point x="882.5" y="12" type="line"/>
      <point x="882.5" y="589" type="line"/>
    </contour>
    <contour>
      <point x="826.5" y="75" type="line"/>
      <point x="827.5" y="-2" type="line"/>
      <point x="1320.5" y="-1" type="line"/>
      <point x="1320.5" y="76" type="line"/>
    </contour>
    <contour>
      <point x="540.5" y="1024" type="line"/>
      <point x="540.5" y="-223" type="line"/>
      <point x="606.5" y="-223" type="line"/>
      <point x="606.5" y="1024" type="line"/>
    </contour>
    <contour>
      <point x="538.5" y="-179" type="line"/>
      <point x="538.5" y="-258" type="line"/>
      <point x="1486.5" y="-258" type="line"/>
      <point x="1486.5" y="-179" type="line"/>
    </contour>
    <contour>
      <point x="1424.5" y="1033" type="line"/>
      <point x="1424.5" y="0" type="line"/>
      <point x="1509.5" y="0" type="line"/>
      <point x="1509.5" y="1033" type="line"/>
    </contour>
    <contour>
      <point x="1266.5" y="76" type="line"/>
      <point x="1266.5" y="0" type="line"/>
      <point x="1456.5" y="0" type="line"/>
      <point x="1456.5" y="76" type="line"/>
    </contour>
  </outline>
</glyph>
<glyph name="B" format="2">
  <advance width="2048"/>
  <unicode hex="0042"/>
  <outline>
    <contour>
      <point x="169" y="2" type="line"/>
      <point x="236" y="2" type="line"/>
      <point x="218" y="1554" type="line"/>
      <point x="161" y="1555" type="line"/>
    </contour>
    <contour>
      <point x="1107" y="1494" type="line"/>
      <point x="1943" y="1232" type="line"/>
      <point x="1946" y="1288" type="line"/>
      <point x="1107" y="1552" type="line"/>
    </contour>
    <contour>
      <point x="1130" y="848" type="line"/>
      <point x="1942" y="1232" type="line"/>
      <point x="1946" y="1286" type="line"/>
      <point x="1130" y="908" type="line"/>
    </contour>
    <contour>
      <point x="1112" y="62" type="line"/>
      <point x="1112" y="2" type="line"/>
      <point x="1980" y="434" type="line"/>
      <point x="1980" y="500" type="line"/>
    </contour>
    <contour>
      <point x="1118" y="719" type="line"/>
      <point x="1980" y="430" type="line"/>
      <point x="1981" y="501" type="line"/>
      <point x="1116" y="781" type="line"/>
    </contour>
    <contour>
      <point x="215" y="907" type="line"/>
      <point x="215" y="847" type="line"/>
      <point x="1130" y="847" type="line"/>
      <point x="1130" y="907" type="line"/>
    </contour>
    <contour>
      <point x="206" y="781" type="line"/>
      <point x="206" y="721" type="line"/>
      <point x="1116" y="721" type="line"/>
      <point x="1116" y="781" type="line"/>
    </contour>
    <contour>
      <point x="202" y="62" type="line"/>
      <point x="202" y="2" type="line"/>
      <point x="1112" y="2" type="line"/>
      <point x="1112" y="62" type="line"/>
    </contour>
    <contour>
      <point x="197" y="1554" type="line"/>
      <point x="197" y="1494" type="line"/>
      <point x="1107" y="1494" type="line"/>
      <point x="1107" y="1554" type="line"/>
    </contour>
  </outline>
</glyph>
<glyph name="D" format="2">
  <advance width="2048"/>
  <unicode hex="0044"/>
  <outline>
    <contour>
      <point x="116" y="1554" type="line"/>
      <point x="122" y="1" type="line"/>
      <point x="178" y="0" type="line"/>
      <point x="177" y="1554" type="line"/>
    </contour>
    <contour>
      <point x="1256" y="1552" type="line"/>
      <point x="1256" y="1493" type="line"/>
      <point x="1948" y="961" type="line"/>
      <point x="1947" y="1024" type="line"/>
    </contour>
    <contour>
      <point x="1257" y="58" type="line"/>
      <point x="1257" y="0" type="line"/>
      <point x="1948" y="960" type="line"/>
      <point x="1949" y="1025" type="line"/>
    </contour>
    <contour>
      <point x="177" y="1553" type="line"/>
      <point x="175" y="1494" type="line"/>
      <point x="1256" y="1493" type="line"/>
      <point x="1256" y="1553" type="line"/>
    </contour>
    <contour>
      <point x="178" y="58" type="line"/>
      <point x="178" y="0" type="line"/>
      <point x="1257" y="0" type="line"/>
      <point x="1257" y="58" type="line"/>
    </contour>
  </outline>
</glyph>
<glyph name="I" format="2">
  <advance width="2048"/>
  <unicode hex="0049"/>
  <outline>
    <contour>
      <point x="144" y="1550" type="line"/>
      <point x="144" y="1489" type="line"/>
      <point x="1869" y="1489" type="line"/>
      <point x="1869" y="1550" type="line"/>
    </contour>
    <contour>
      <point x="980" y="1515" type="line"/>
      <point x="980" y="34" type="line"/>
      <point x="1039" y="34" type="line"/>
      <point x="1039" y="1515" type="line"/>
    </contour>
    <contour>
      <point x="124" y="66" type="line"/>
      <point x="124" y="6" type="line"/>
      <point x="1904" y="6" type="line"/>
      <point x="1904" y="66" type="line"/>
    </contour>
  </outline>
</glyph>
<glyph name="M" format="2">
  <advance width="2048"/>
  <unicode hex="004D"/>
  <outline>
    <contour>
      <point x="101" y="1554" type="line"/>
      <point x="101" y="2" type="line"/>
      <point x="161" y="2" type="line"/>
      <point x="161" y="1554" type="line"/>
    </contour>
    <contour>
      <point x="1887" y="1554" type="line"/>
      <point x="1887" y="-3" type="line"/>
      <point x="1948" y="-3" type="line"/>
      <point x="1948" y="1554" type="line"/>
    </contour>
    <contour>
      <point x="101" y="1554" type="line"/>
      <point x="988" y="1033" type="line"/>
      <point x="1057" y="1033" type="line"/>
      <point x="161" y="1554" type="line"/>
    </contour>
    <contour>
      <point x="1887" y="1554" type="line"/>
      <point x="989" y="1034" type="line"/>
      <point x="1057" y="1033" type="line"/>
      <point x="1948" y="1554" type="line"/>
    </contour>
  </outline>
</glyph>
<glyph name="N" format="2">
  <advance width="2048"/>
  <unicode hex="004E"/>
  <outline>
    <contour>
      <point x="97" y="1555" type="line"/>
      <point x="97" y="-1" type="line"/>
      <point x="159" y="0" type="line"/>
      <point x="157" y="1554" type="line"/>
    </contour>
    <contour>
      <point x="1889" y="1554" type="line"/>
      <point x="1889" y="0" type="line"/>
      <point x="1950" y="0" type="line"/>
      <point x="1949" y="1554" type="line"/>
    </contour>
    <contour>
      <point x="98" y="1554" type="line"/>
      <point x="1889" y="0" type="line"/>
      <point x="1950" y="0" type="line"/>
      <point x="158" y="1553" type="line"/>
    </contour>
  </outline>
</glyph>
<glyph name="O" format="2">
  <advance width="2048"/>
  <unicode hex="004F"/>
  <outline>
    <contour>
      <point x="110" y="1554" type="line"/>
      <point x="110" y="2" type="line"/>
      <point x="169" y="2" type="line"/>
      <point x="169" y="1554" type="line"/>
    </contour>
    <contour>
      <point x="1875" y="1554" type="line"/>
      <point x="1875" y="0" type="line"/>
      <point x="1934" y="0" type="line"/>
      <point x="1934" y="1554" type="line"/>
    </contour>
    <contour>
      <point x="148" y="1554" type="line"/>
      <point x="148" y="1493" type="line"/>
      <point x="1904" y="1493" type="line"/>
      <point x="1904" y="1554" type="line"/>
    </contour>
    <contour>
      <point x="150" y="61" type="line"/>
      <point x="150" y="0" type="line"/>
      <point x="1912" y="0" type="line"/>
      <point x="1912" y="61" type="line"/>
    </contour>
  </outline>
</glyph>
<glyph name="S" format="2">
  <advance width="2048"/>
  <unicode hex="0053"/>
  <outline>
    <contour>
      <point x="146" y="1554" type="line"/>
      <point x="146" y="1494" type="line"/>
      <point x="1768" y="1494" type="line"/>
      <point x="1768" y="1554" type="line"/>
    </contour>
    <contour>
      <point x="146" y="1542" type="line"/>
      <point x="146" y="1028" type="line"/>
      <point x="205" y="1028" type="line"/>
      <point x="205" y="1542" type="line"/>
    </contour>
    <contour>
      <point x="174" y="60" type="line"/>
      <point x="174" y="0" type="line"/>
      <point x="1906" y="0" type="line"/>
      <point x="1906" y="60" type="line"/>
    </contour>
    <contour>
      <point x="1883" y="0" type="line"/>
      <point x="1942" y="0" type="line"/>
      <point x="1942" y="355" type="line"/>
      <point x="1883" y="355" type="line"/>
    </contour>
    <contour>
      <point x="146" y="1028" type="line"/>
      <point x="1883" y="355" type="line"/>
      <point x="1942" y="355" type="line"/>
      <point x="205" y="1028" type="line"/>
    </contour>
  </outline>
</glyph>
<glyph name="T" format="2">
  <advance width="2048"/>
  <unicode hex="0054"/>
  <outline>
    <contour>
      <point x="118" y="1553" type="line"/>
      <point x="119" y="1493" type="line"/>
      <point x="1927" y="1494" type="line"/>
      <point x="1927" y="1554" type="line"/>
    </contour>
    <contour>
      <point x="994" y="1512" type="line"/>
      <point x="994" y="12" type="line"/>
      <point x="1053" y="12" type="line"/>
      <point x="1053" y="1512" type="line"/>
    </contour>
  </outline>
</glyph>
<glyph name="W" format="2">
  <advance width="2048"/>
  <unicode hex="0057"/>
  <outline>
    <contour>
      <point x="104" y="1546" type="line"/>
      <point x="104" y="0" type="line"/>
      <point x="164" y="0" type="line"/>
      <point x="164" y="1546" type="line"/>
    </contour>
    <contour>
      <point x="1886" y="1533" type="line"/>
      <point x="1886" y="12" type="line"/>
      <point x="1946" y="12" type="line"/>
      <point x="1946" y="1533" type="line"/>
    </contour>
    <contour>
      <point x="995" y="1028" type="line"/>
      <point x="996" y="1" type="line"/>
      <point x="1054" y="1" type="line"/>
      <point x="1055" y="1028" type="line"/>
    </contour>
    <contour>
      <point x="112" y="60" type="line"/>
      <point x="113" y="0" type="line"/>
      <point x="1946" y="0" type="line"/>
      <point x="1946" y="60" type="line"/>
    </contour>
  </outline>
</glyph>
<glyph name="Z" format="2">
  <advance width="2048"/>
  <unicode hex="005A"/>
  <outline>
    <contour>
      <point x="98" y="1550" type="line"/>
      <point x="98" y="1491" type="line"/>
      <point x="1950" y="1491" type="line"/>
      <point x="1950" y="1550" type="line"/>
    </contour>
    <contour>
      <point x="99" y="60" type="line"/>
      <point x="99" y="1" type="line"/>
      <point x="1950" y="1" type="line"/>
      <point x="1950" y="60" type="line"/>
    </contour>
    <contour>
      <point x="1890" y="1491" type="line"/>
      <point x="99" y="60" type="line"/>
      <point x="159" y="60" type="line"/>
      <point x="1950" y="1491" type="line"/>
    </contour>
  </outline>
</glyph>
<glyph name="backslash" format="2">
  <advance width="2048"/>
  <unicode hex="005C"/>
  <outline>
    <contour>
      <point x="707" y="1550" type="line"/>
      <point x="1263" y="-2" type="line"/>
      <point x="1341" y="0" type="line"/>
      <point x="790" y="1551" type="line"/>
    </contour>
  </outline>
</glyph>
<glyph name="bracketright" format="2">
  <advance width="2048"/>
  <unicode hex="005D"/>
  <outline>
    <contour>
      <point x="1097.5" y="1542" type="line"/>
      <point x="1099.5" y="-242" type="line"/>
      <point x="1162.5" y="-242" type="line"/>
      <point x="1159.5" y="1542" type="line"/>
    </contour>
    <contour>
      <point x="885.5" y="1543" type="line"/>
      <point x="885.5" y="1478" type="line"/>
      <point x="1113.5" y="1478" type="line"/>
      <point x="1113.5" y="1543" type="line"/>
    </contour>
    <contour>
      <point x="885.5" y="-165" type="line"/>
      <point x="885.5" y="-242" type="line"/>
      <point x="1124.5" y="-242" type="line"/>
      <point x="1124.5" y="-165" type="line"/>
    </contour>
  </outline>
</glyph>
<glyph name="asciicircum" format="2">
  <advance width="2048"/>
  <unicode hex="005E"/>
  <outline>
    <contour>
      <point x="1022.5" y="1027" type="line"/>
      <point x="950.5" y="1025" type="line"/>
      <point x="685.5" y="407" type="line"/>
      <point x="740.5" y="373" type="line"/>
    </contour>
    <contour>
      <point x="956.5" y="1023" type="line"/>
      <point x="1279.5" y="364" type="line"/>
      <point x="1362.5" y="400" type="line"/>
      <point x="1029.5" y="1030" type="line"/>
    </contour>
  </outline>
</glyph>
<glyph name="grave" format="2">
  <advance width="2048"/>
  <unicode hex="0060"/>
  <outline>
    <contour>
      <point x="937.5" y="1286" type="line"/>
      <point x="1022.5" y="1057" type="line"/>
      <point x="1110.5" y="1112" type="line"/>
      <point x="1018.5" y="1340" type="line"/>
    </contour>
  </outline>
</glyph>
<glyph name="a" format="2">
  <advance width="2048"/>
  <unicode hex="0061"/>
  <outline>
    <contour>
      <point x="180" y="1021" type="line"/>
      <point x="180" y="955" type="line"/>
      <point x="1857" y="957" type="line"/>
      <point x="1853" y="1024" type="line"/>
    </contour>
    <contour>
      <point x="1815" y="1025" type="line"/>
      <point x="1836" y="1" type="line"/>
      <point x="1896" y="1" type="line"/>
      <point x="1892" y="1025" type="line"/>
    </contour>
    <contour>
      <point x="183" y="602" type="line"/>
      <point x="187" y="539" type="line"/>
      <point x="1835" y="538" type="line"/>
      <point x="1831" y="600" type="line"/>
    </contour>
    <contour>
      <point x="184" y="575" type="line"/>
      <point x="184" y="-2" type="line"/>
      <point x="270" y="-1" type="line"/>
      <point x="255" y="577" type="line"/>
    </contour>
    <contour>
      <point x="193" y="64" type="line"/>
      <point x="192" y="-2" type="line"/>
      <point x="1881" y="-1" type="line"/>
      <point x="1881" y="74" type="line"/>
    </contour>
  </outline>
</glyph>
<glyph name="b" format="2">
  <advance width="2048"/>
  <unicode hex="0062"/>
  <outline>
    <contour>
      <point x="139" y="1536" type="line"/>
      <point x="139" y="0" type="line"/>
      <point x="199" y="0" type="line"/>
      <point x="199" y="1536" type="line"/>
    </contour>
    <contour>
      <point x="182" y="1033" type="line"/>
      <point x="182" y="972" type="line"/>
      <point x="1870" y="972" type="line"/>
      <point x="1870" y="1033" type="line"/>
    </contour>
    <contour>
      <point x="1857" y="1033" type="line"/>
      <point x="1857" y="0" type="line"/>
      <point x="1917" y="0" type="line"/>
      <point x="1917" y="1033" type="line"/>
    </contour>
    <contour>
      <point x="174" y="60" type="line"/>
      <point x="174" y="1" type="line"/>
      <point x="1895" y="1" type="line"/>
      <point x="1895" y="60" type="line"/>
    </contour>
  </outline>
</glyph>
<glyph name="c" format="2">
  <advance width="2048"/>
  <unicode hex="0063"/>
  <outline>
    <contour>
      <point x="201" y="1026" type="line"/>
      <point x="203" y="967" type="line"/>
      <point x="1919" y="967" type="line"/>
      <point x="1922" y="1027" type="line"/>
    </contour>
    <contour>
      <point x="204" y="984" type="line"/>
      <point x="204" y="-1" type="line"/>
      <point x="265" y="0" type="line"/>
      <point x="264" y="984" type="line"/>
    </contour>
    <contour>
      <point x="252" y="59" type="line"/>
      <point x="252" y="1" type="line"/>
      <point x="1916" y="0" type="line"/>
      <point x="1916" y="60" type="line"/>
    </contour>
  </outline>
</glyph>
<glyph name="d" format="2">
  <advance width="2048"/>
  <unicode hex="0064"/>
  <outline>
    <contour>
      <point x="1786" y="1552" type="line"/>
      <point x="1786" y="-1" type="line"/>
      <point x="1846" y="-1" type="line"/>
      <point x="1846" y="1552" type="line"/>
    </contour>
    <contour>
      <point x="210" y="1026" type="line"/>
      <point x="215" y="966" type="line"/>
      <point x="1819" y="966" type="line"/>
      <point x="1819" y="1026" type="line"/>
    </contour>
    <contour>
      <point x="165" y="1024" type="line"/>
      <point x="165" y="0" type="line"/>
      <point x="226" y="1" type="line"/>
      <point x="226" y="1024" type="line"/>
    </contour>
    <contour>
      <point x="206" y="59" type="line"/>
      <point x="206" y="1" type="line"/>
      <point x="1798" y="-4" type="line"/>
      <point x="1798" y="59" type="line"/>
    </contour>
  </outline>
</glyph>
<glyph name="e" format="2">
  <advance width="2048"/>
  <unicode hex="0065"/>
  <outline>
    <contour>
      <point x="218" y="1024" type="line"/>
      <point x="218" y="967" type="line"/>
      <point x="1882" y="968" type="line"/>
      <point x="1881" y="1025" type="line"/>
    </contour>
    <contour>
      <point x="166" y="1024" type="line"/>
      <point x="165" y="-1" type="line"/>
      <point x="231" y="0" type="line"/>
      <point x="224" y="1024" type="line"/>
    </contour>
    <contour>
      <point x="208" y="60" type="line"/>
      <point x="208" y="1" type="line"/>
      <point x="1877" y="0" type="line"/>
      <point x="1877" y="61" type="line"/>
    </contour>
    <contour>
      <point x="187" y="506" type="line"/>
      <point x="195" y="445" type="line"/>
      <point x="1849" y="446" type="line"/>
      <point x="1848" y="506" type="line"/>
    </contour>
    <contour>
      <point x="1823" y="995" type="line"/>
      <point x="1822" y="445" type="line"/>
      <point x="1884" y="445" type="line"/>
      <point x="1882" y="993" type="line"/>
    </contour>
  </outline>
</glyph>
<glyph name="f" format="2">
  <advance width="2048"/>
  <unicode hex="0066"/>
  <outline>
    <contour>
      <point x="995" y="1023" type="line"/>
      <point x="995" y="-409" type="line"/>
      <point x="1053" y="-410" type="line"/>
      <point x="1055" y="1024" type="line"/>
    </contour>
    <contour>
      <point x="996" y="1023" type="line"/>
      <point x="995" y="963" type="line"/>
      <point x="1907" y="963" type="line"/>
      <point x="1906" y="1024" type="line"/>
    </contour>
    <contour>
      <point x="273" y="462" type="line"/>
      <point x="273" y="402" type="line"/>
      <point x="1776" y="402" type="line"/>
      <point x="1776" y="462" type="line"/>
    </contour>
  </outline>
</glyph>
<glyph name="g" format="2">
  <advance width="2048"/>
  <unicode hex="0067"/>
  <outline>
    <contour>
      <point x="297" y="1023" type="line"/>
      <point x="297" y="0" type="line"/>
      <point x="357" y="0" type="line"/>
      <point x="357" y="1023" type="line"/>
    </contour>
    <contour>
      <point x="337" y="1021" type="line"/>
      <point x="337" y="962" type="line"/>
      <point x="1877" y="962" type="line"/>
      <point x="1877" y="1021" type="line"/>
    </contour>
    <contour>
      <point x="1839" y="1024" type="line"/>
      <point x="1839" y="-411" type="line"/>
      <point x="1899" y="-411" type="line"/>
      <point x="1899" y="1024" type="line"/>
    </contour>
    <contour>
      <point x="360" y="58" type="line"/>
      <point x="360" y="-1" type="line"/>
      <point x="1841" y="-1" type="line"/>
      <point x="1841" y="58" type="line"/>
    </contour>
    <contour>
      <point x="337" y="-354" type="line"/>
      <point x="337" y="-413" type="line"/>
      <point x="1850" y="-413" type="line"/>
      <point x="1850" y="-354" type="line"/>
    </contour>
  </outline>
</glyph>
<glyph name="k" format="2">
  <advance width="2048"/>
  <unicode hex="006B"/>
  <outline>
    <contour>
      <point x="118" y="1535" type="line"/>
      <point x="118" y="5" type="line"/>
      <point x="178" y="5" type="line"/>
      <point x="178" y="1535" type="line"/>
    </contour>
    <contour>
      <point x="167" y="421" type="line"/>
      <point x="165" y="352" type="line"/>
      <point x="1824" y="1024" type="line"/>
      <point x="1764" y="1024" type="line"/>
    </contour>
    <contour>
      <point x="519" y="551" type="line"/>
      <point x="477" y="508" type="line"/>
      <point x="1929" y="0" type="line"/>
      <point x="1990" y="0" type="line"/>
    </contour>
  </outline>
</glyph>
<glyph name="l" format="2">
  <advance width="2048"/>
  <unicode hex="006C"/>
  <outline>
    <contour>
      <point x="195" y="72" type="line"/>
      <point x="195" y="1" type="line"/>
      <point x="1829" y="1" type="line"/>
      <point x="1829" y="72" type="line"/>
    </contour>
    <contour>
      <point x="994" y="1553" type="line"/>
      <point x="994" y="57" type="line"/>
      <point x="1054" y="57" type="line"/>
      <point x="1054" y="1553" type="line"/>
    </contour>
    <contour>
      <point x="256" y="1553" type="line"/>
      <point x="256" y="1494" type="line"/>
      <point x="1003" y="1494" type="line"/>
      <point x="1003" y="1553" type="line"/>
    </contour>
  </outline>
</glyph>
<glyph name="m" format="2">
  <advance width="2048"/>
  <unicode hex="006D"/>
  <outline>
    <contour>
      <point x="310" y="993" type="line"/>
      <point x="310" y="1" type="line"/>
      <point x="370" y="1" type="line"/>
      <point x="370" y="993" type="line"/>
    </contour>
    <contour>
      <point x="1006" y="972" type="line"/>
      <point x="1006" y="-2" type="line"/>
      <point x="1066" y="-2" type="line"/>
      <point x="1066" y="972" type="line"/>
    </contour>
    <contour>
      <point x="1903" y="976" type="line"/>
      <point x="1903" y="1" type="line"/>
      <point x="1964" y="1" type="line"/>
      <point x="1964" y="976" type="line"/>
    </contour>
    <contour>
      <point x="35" y="1025" type="line"/>
      <point x="36" y="965" type="line"/>
      <point x="1964" y="966" type="line"/>
      <point x="1964" y="1024" type="line"/>
    </contour>
  </outline>
</glyph>
<glyph name="q" format="2">
  <advance width="2048"/>
  <unicode hex="0071"/>
  <outline>
    <contour>
      <point x="1588" y="1191" type="line"/>
      <point x="1588" y="-411" type="line"/>
      <point x="1646" y="-410" type="line"/>
      <point x="1648" y="1188" type="line"/>
    </contour>
    <contour>
      <point x="184" y="1025" type="line"/>
      <point x="184" y="961" type="line"/>
      <point x="1633" y="961" type="line"/>
      <point x="1633" y="1025" type="line"/>
    </contour>
    <contour>
      <point x="190" y="57" type="line"/>
      <point x="190" y="0" type="line"/>
      <point x="1606" y="0" type="line"/>
      <point x="1606" y="57" type="line"/>
    </contour>
    <contour>
      <point x="176" y="1025" type="line"/>
      <point x="176" y="0" type="line"/>
      <point x="235" y="0" type="line"/>
      <point x="235" y="1025" type="line"/>
    </contour>
    <contour>
      <point x="1592" y="-344" type="line"/>
      <point x="1592" y="-410" type="line"/>
      <point x="1949" y="-410" type="line"/>
      <point x="1949" y="-344" type="line"/>
    </contour>
  </outline>
</glyph>
<glyph name="t" format="2">
  <advance width="2048"/>
  <unicode hex="0074"/>
  <outline>
    <contour>
      <point x="994" y="1529" type="line"/>
      <point x="994" y="0" type="line"/>
      <point x="1055" y="0" type="line"/>
      <point x="1055" y="1529" type="line"/>
    </contour>
    <contour>
      <point x="1007" y="60" type="line"/>
      <point x="1007" y="0" type="line"/>
      <point x="1910" y="0" type="line"/>
      <point x="1910" y="60" type="line"/>
    </contour>
    <contour>
      <point x="175" y="1025" type="line"/>
      <point x="176" y="965" type="line"/>
      <point x="1874" y="965" type="line"/>
      <point x="1873" y="1025" type="line"/>
    </contour>
  </outline>
</glyph>
<glyph name="y" format="2">
  <advance width="2048"/>
  <unicode hex="0079"/>
  <outline>
    <contour>
      <point x="1841" y="1023" type="line"/>
      <point x="1841" y="-410" type="line"/>
      <point x="1901" y="-410" type="line"/>
      <point x="1901" y="1023" type="line"/>
    </contour>
    <contour>
      <point x="147" y="-351" type="line"/>
      <point x="147" y="-410" type="line"/>
      <point x="1888" y="-410" type="line"/>
      <point x="1888" y="-351" type="line"/>
    </contour>
    <contour>
      <point x="147" y="1023" type="line"/>
      <point x="147" y="264" type="line"/>
      <point x="207" y="264" type="line"/>
      <point x="207" y="1023" type="line"/>
    </contour>
    <contour>
      <point x="147" y="324" type="line"/>
      <point x="147" y="264" type="line"/>
      <point x="1861" y="264" type="line"/>
      <point x="1861" y="324" type="line"/>
    </contour>
  </outline>
</glyph>
<glyph name="bar" format="2">
  <advance width="2048"/>
  <unicode hex="007C"/>
  <outline>
    <contour>
      <point x="983.5" y="1435" type="line"/>
      <point x="983.5" y="-90" type="line"/>
      <point x="1064.5" y="-90" type="line"/>
      <point x="1064.5" y="1435" type="line"/>
    </contour>
  </outline>
</glyph>
<glyph name="asciitilde" format="2">
  <advance width="2048"/>
  <unicode hex="007E"/>
  <outline>
    <contour>
      <point x="878.5" y="766" type="line"/>
      <point x="878.5" y="716" type="line"/>
      <point x="1228.5" y="645" type="line"/>
      <point x="1228.5" y="695" type="line"/>
    </contour>
    <contour>
      <point x="638.5" y="710" type="line"/>
      <point x="651.5" y="652" type="line"/>
      <point x="878.5" y="716" type="line"/>
      <point x="878.5" y="766" type="line"/>
    </contour>
    <contour>
      <point x="1228.5" y="695" type="line"/>
      <point x="1228.5" y="645" type="line"/>
      <point x="1409.5" y="796" type="line"/>
      <point x="1396.5" y="843" type="line"/>
    </contour>
  </outline>
</glyph>
<glyph name="gravecomb" format="2">
  <advance width="2048"/>
  <unicode hex="0300"/>
  <outline>
    <contour>
      <point x="385" y="877" type="line"/>
      <point x="510" y="673" type="line"/>
      <point x="570" y="727" type="line"/>
      <point x="445" y="932" type="line"/>
    </contour>
  </outline>
</glyph>
<glyph name="uni0900" format="2">
  <advance width="2048"/>
  <unicode hex="0900"/>
  <outline>
    <contour>
      <point x="179.65" y="2124" type="line"/>
      <point x="179.65" y="1639" type="line"/>
      <point x="239.35" y="1639" type="line"/>
      <point x="239.35" y="2124" type="line"/>
    </contour>
    <contour>
      <point x="193.45" y="2121.65" type="line"/>
      <point x="193.45" y="2061.35" type="line"/>
      <point x="806.8" y="2061.35" type="line"/>
      <point x="806.8" y="2121.65" type="line"/>
    </contour>
    <contour>
      <point x="784" y="2127" type="line"/>
      <point x="784" y="1636" type="line"/>
      <point x="844" y="1636" type="line"/>
      <point x="844" y="2127" type="line"/>
    </contour>
    <contour>
      <point x="481" y="1795" type="line"/>
      <point x="481" y="1735" type="line"/>
      <point x="541" y="1735" type="line"/>
      <point x="541" y="1795" type="line"/>
    </contour>
    <contour>
      <point x="-8" y="1537.35" type="line"/>
      <point x="-4" y="1477.65" type="line"/>
      <point x="1025" y="1477.65" type="line"/>
      <point x="1021" y="1537.35" type="line"/>
    </contour>
  </outline>
</glyph>
<glyph name="uni0901" format="2">
  <advance width="2048"/>
  <unicode hex="0901"/>
  <outline>
    <contour>
      <point x="134.4" y="2124" type="line"/>
      <point x="134.4" y="1639" type="line"/>
      <point x="194.1" y="1639" type="line"/>
      <point x="194.1" y="2124" type="line"/>
    </contour>
    <contour>
      <point x="169" y="1708" type="line"/>
      <point x="169" y="1647.7" type="line"/>
      <point x="803" y="1647.7" type="line"/>
      <point x="803" y="1708" type="line"/>
    </contour>
    <contour>
      <point x="771.6" y="2132" type="line"/>
      <point x="771.6" y="1641" type="line"/>
      <point x="831.6" y="1641" type="line"/>
      <point x="831.6" y="2132" type="line"/>
    </contour>
    <contour>
      <point x="445.7" y="1941.9" type="line"/>
      <point x="445.7" y="1881.9" type="line"/>
      <point x="505.7" y="1881.9" type="line"/>
      <point x="505.7" y="1941.9" type="line"/>
    </contour>
    <contour>
      <point x="-4" y="1546" type="line"/>
      <point x="-4" y="1486.3" type="line"/>
      <point x="1025" y="1486.3" type="line"/>
      <point x="1025" y="1546" type="line"/>
    </contour>
  </outline>
</glyph>
<glyph name="uni0903" format="2">
  <advance width="2048"/>
  <unicode hex="0903"/>
  <outline>
    <contour>
      <point x="489" y="702.9" type="line"/>
      <point x="489" y="642.9" type="line"/>
      <point x="549" y="642.9" type="line"/>
      <point x="549" y="702.9" type="line"/>
    </contour>
    <contour>
      <point x="470" y="1349.3" type="line"/>
      <point x="470" y="1289.3" type="line"/>
      <point x="530" y="1289.3" type="line"/>
      <point x="530" y="1349.3" type="line"/>
    </contour>
  </outline>
</glyph>
<glyph name="uni0909" format="2">
  <advance width="2048"/>
  <unicode hex="0909"/>
  <outline>
    <contour>
      <point x="-4" y="1552" type="line"/>
      <point x="-4" y="1493" type="line"/>
      <point x="1022" y="1493" type="line"/>
      <point x="1022" y="1552" type="line"/>
    </contour>
    <contour>
      <point x="620" y="1530" type="line"/>
      <point x="620" y="1001" type="line"/>
      <point x="679" y="1001" type="line"/>
      <point x="679" y="1530" type="line"/>
    </contour>
    <contour>
      <point x="235" y="1044" type="line"/>
      <point x="235" y="985" type="line"/>
      <point x="877" y="985" type="line"/>
      <point x="877" y="1044" type="line"/>
    </contour>
    <contour>
      <point x="818" y="994" type="line"/>
      <point x="818" y="191" type="line"/>
      <point x="878" y="191" type="line"/>
      <point x="878" y="994" type="line"/>
    </contour>
    <contour>
      <point x="130" y="246" type="line"/>
      <point x="130" y="185" type="line"/>
      <point x="867" y="185" type="line"/>
      <point x="867" y="246" type="line"/>
    </contour>
    <contour>
      <point x="130" y="546" type="line"/>
      <point x="130" y="219" type="line"/>
      <point x="189" y="219" type="line"/>
      <point x="189" y="546" type="line"/>
    </contour>
  </outline>
</glyph>
<glyph name="uni0913" format="2">
  <advance width="2048"/>
  <unicode hex="0913"/>
  <outline>
    <contour>
      <point x="516" y="1553" type="line"/>
      <point x="516" y="1494" type="line"/>
      <point x="1017" y="1494" type="line"/>
      <point x="1017" y="1553" type="line"/>
    </contour>
    <contour>
      <point x="717" y="1518" type="line"/>
      <point x="717" y="1" type="line"/>
      <point x="778" y="1" type="line"/>
      <point x="778" y="1518" type="line"/>
    </contour>
    <contour>
      <point x="50" y="1547" type="line"/>
      <point x="50" y="1487" type="line"/>
      <point x="373" y="1487" type="line"/>
      <point x="373" y="1547" type="line"/>
    </contour>
    <contour>
      <point x="340" y="1550" type="line"/>
      <point x="340" y="34" type="line"/>
      <point x="399" y="34" type="line"/>
      <point x="399" y="1550" type="line"/>
    </contour>
    <contour>
      <point x="134" y="894" type="line"/>
      <point x="134" y="835" type="line"/>
      <point x="742" y="835" type="line"/>
      <point x="742" y="894" type="line"/>
    </contour>
    <contour>
      <point x="25" y="65" type="line"/>
      <point x="25" y="1" type="line"/>
      <point x="399" y="1" type="line"/>
      <point x="399" y="65" type="line"/>
    </contour>
    <contour>
      <point x="900" y="1518" type="line"/>
      <point x="900" y="1" type="line"/>
      <point x="961" y="1" type="line"/>
      <point x="961" y="1518" type="line"/>
    </contour>
    <contour>
      <point x="698" y="1807" type="line"/>
      <point x="779" y="1529" type="line"/>
      <point x="855" y="1549" type="line"/>
      <point x="771" y="1826" type="line"/>
    </contour>
  </outline>
</glyph>
